<svg width="61" height="61" viewBox="0 0 61 61" fill="none" xmlns="http://www.w3.org/2000/svg">
<circle cx="30.5" cy="30.5" r="30" fill="#FCFCFF" stroke="#EFEFFF"/>
<path d="M30.4189 30.5C30.4189 27.8306 32.5587 25.6666 35.1983 25.6666C37.8378 25.6666 39.9776 27.8306 39.9776 30.5C39.9776 33.1694 37.8378 35.3333 35.1983 35.3333C32.5587 35.3333 30.4189 33.1694 30.4189 30.5Z" fill="#1ABCFE"/>
<path d="M20.8604 40.1666C20.8604 37.4973 23.0001 35.3333 25.6397 35.3333H30.419V40.1666C30.419 42.836 28.2793 45 25.6397 45C23.0001 45 20.8604 42.836 20.8604 40.1666Z" fill="#0ACF83"/>
<path d="M30.4189 16V25.6666H35.1983C37.8378 25.6666 39.9776 23.5027 39.9776 20.8333C39.9776 18.164 37.8378 16 35.1983 16H30.4189Z" fill="#FF7262"/>
<path d="M20.8604 20.8333C20.8604 23.5027 23.0001 25.6666 25.6397 25.6666H30.419V16H25.6397C23.0001 16 20.8604 18.164 20.8604 20.8333Z" fill="#F24E1E"/>
<path d="M20.8604 30.5C20.8604 33.1694 23.0001 35.3333 25.6397 35.3333H30.419V25.6666H25.6397C23.0001 25.6666 20.8604 27.8306 20.8604 30.5Z" fill="#A259FF"/>
</svg>
